<?xml version="1.0" encoding="iso-8859-1"?>
<!-- Generator: Adobe Illustrator 19.0.0, SVG Export Plug-In . SVG Version: 6.00 Build 0)  -->
<svg version="1.1" id="Capa_1" xmlns="http://www.w3.org/2000/svg" xmlns:xlink="http://www.w3.org/1999/xlink" x="0px" y="0px"
	 viewBox="0 0 421.28 421.28" style="enable-background:new 0 0 421.28 421.28;" xml:space="preserve">
<g>
	<g>
		<polygon points="36.64,42.8 36.64,129.84 52.64,129.84 52.64,58.8 128.08,58.8 128.08,42.8 		"/>
	</g>
</g>
<g>
	<g>
		<polygon points="293.2,42.8 293.2,58.8 368.64,58.8 368.64,129.84 384.64,129.84 384.64,42.8 		"/>
	</g>
</g>
<g>
	<g>
		<polygon points="52.64,361.04 52.64,289.92 36.64,289.92 36.64,377.04 128.08,377.04 128.08,361.04 		"/>
	</g>
</g>
<g>
	<g>
		<polygon points="368.64,289.92 368.64,361.04 293.2,361.04 293.2,377.04 384.64,377.04 384.64,289.92 		"/>
	</g>
</g>
<g>
	<g>
		<rect x="202.64" width="16" height="98.64"/>
	</g>
</g>
<g>
	<g>
		<rect x="202.64" y="322.64" width="16" height="98.64"/>
	</g>
</g>
<g>
	<g>
		<rect x="322.64" y="202.64" width="98.64" height="16"/>
	</g>
</g>
<g>
	<g>
		<rect y="202.64" width="98.64" height="16"/>
	</g>
</g>
<g>
	<g>
		<path d="M210.64,147.92c-34.639,0-62.72,28.081-62.72,62.72s28.081,62.72,62.72,62.72c34.639,0,62.72-28.081,62.72-62.72
			C273.316,176.019,245.261,147.964,210.64,147.92z M210.64,257.36v0.08c-25.803,0-46.72-20.917-46.72-46.72
			c0-25.803,20.917-46.72,46.72-46.72c25.772,0,46.676,20.869,46.72,46.64C257.316,236.424,236.424,257.316,210.64,257.36z"/>
	</g>
</g>
<g>
</g>
<g>
</g>
<g>
</g>
<g>
</g>
<g>
</g>
<g>
</g>
<g>
</g>
<g>
</g>
<g>
</g>
<g>
</g>
<g>
</g>
<g>
</g>
<g>
</g>
<g>
</g>
<g>
</g>
</svg>
